<?xml version="1.0" encoding="utf-8" ?>
<svg baseProfile="full" height="300mm" version="1.1" viewBox="0,0,200,300" width="200mm" xmlns="http://www.w3.org/2000/svg" xmlns:ev="http://www.w3.org/2001/xml-events" xmlns:xlink="http://www.w3.org/1999/xlink"><defs /><rect fill="#222222" height="300" width="200" x="0" y="0" /><text fill="#FFFFFF" style="font-size:12px; font-family:Arial; font-weight:bold;" x="10" y="20">Jopus Run</text><text fill="#FFFFFF" style="font-size:4px; font-family:Arial" x="10" y="280">ATHLETE</text><text fill="#FFFFFF" style="font-size:9px; font-family:Arial" x="10" y="290">Jopus</text><text fill="#FFFFFF" style="font-size:4px; font-family:Arial" x="120" y="280">STATISTICS</text><text fill="#FFFFFF" style="font-size:3px; font-family:Arial" x="120" y="285">Number: 3</text><text fill="#FFFFFF" style="font-size:3px; font-family:Arial" x="120" y="290">Weekly: 3.0</text><text fill="#FFFFFF" style="font-size:3px; font-family:Arial" x="141" y="285">Total: 2.9 km</text><text fill="#FFFFFF" style="font-size:3px; font-family:Arial" x="141" y="290">Avg: 1.0 km</text><text fill="#FFFFFF" style="font-size:3px; font-family:Arial" x="167" y="285">Min: 0.2 km</text><text fill="#FFFFFF" style="font-size:3px; font-family:Arial" x="167" y="290">Max: 2.5 km</text><polyline fill="none" points="63.8168347524479,78.88844937039539 63.59076206665486,79.2124486452667 63.59076206665486,79.53644786088262 65.1732708690688,77.59245169267524 64.26898012496531,74.35245343460701 64.04290743917227,67.87243950308766 63.59076206665486,64.95642565749586 63.36468938179314,62.04040711047128 63.13861669506878,57.50436891161371 62.68647132348269,52.64431535534095 62.00825326517224,50.37628589279484 61.556107892654836,47.78424873831682 60.65181714948267,42.60016328119673 60.87788983620703,39.36010232253466 57.260726858861744,34.82400722731836 48.66996479220688,36.120035558822565 47.31352867651731,36.76804937631823 45.731019873172045,48.43225837557111 46.18316524568945,50.70029027550481 46.409237931482494,54.26433465909213 46.409237931482494,55.56034905684646 46.63531061820686,57.50436891161371 46.18316524568945,59.12438385921996 46.409237931482494,61.06839988240972 46.63531061820686,66.25243239267729 46.63531061820686,67.54843819735106 52.287127767689526,70.46444786258508 57.260726858861744,70.7884486465482 62.68647132348269,63.33641593391076 61.78218057844788,58.15237506455742 61.10396252106875,51.99630722834263 61.330035206861794,49.72827695310116 54.773927313275635,34.82400722731836 49.80032822210342,35.79602856258862 45.05280181672424,41.952151553705335 45.27887450158596,47.46024383290205 45.731019873172045,50.37628589279484 47.08745598979294,61.71640475851018 55.22607268579304,71.76045064884238 58.3910902896896,71.4364500392694 63.59076206665486,63.01241381536238 63.13861669506878,60.420394773595035 62.46039863675833,59.12438385921996 62.00825326517224,53.940330914687365 61.556107892654836,51.024294601986185 60.65181714948267,45.5162131797988 54.32178194168955,34.5 52.287127767689526,34.82400722731836 45.05280181672424,40.65612740279175 45.731019873172045,46.48822876706254 45.95709255989641,48.756263106362894 46.63531061820686,50.37628589279484 47.31352867651731,53.940330914687365 47.08745598979294,55.23634554387536 47.53960136231035,56.856362524675205 47.53960136231035,59.12438385921996 47.76567404810339,60.420394773595035 47.53960136231035,64.63242382928729 47.76567404810339,65.92843079497106 47.991746733896434,69.81644612108357 56.13036342896521,71.4364500392694 58.16501760389656,71.11244937183801 60.19967177789658,70.7884486465482 63.8168347524479,67.87243950308766 63.36468938179314,63.984419997781515 63.36468938179314,62.688411638722755 62.912544009275734,61.39240234903991 62.68647132348269,60.09639213245828 62.23432595189661,59.12438385921996 62.00825326517224,52.64431535534095 61.78218057844788,50.70029027550481 61.10396252106875,47.46024383290205 53.191418510861695,35.472021508263424 50.704618965275586,35.79602856258862 44.8267291309312,42.9241690573981 45.504947187379,48.10825358517468 45.95709255989641,50.70029027550481 45.95709255989641,56.20835590711795 46.409237931482494,61.39240234903991 46.86138330493122,64.30842194287106 47.08745598979294,66.90043541043997 54.547854628413916,72.0844512002077 57.260726858861744,71.11244937183801 63.8168347524479,64.63242382928729 63.59076206665486,61.71640475851018 62.46039863675833,56.856362524675205 61.78218057844788,51.024294601986185 61.78218057844788,48.10825358517468 60.87788983620703,43.248174776206724 60.65181714948267,40.65612740279175 53.6435638833791,35.472021508263424 52.061055081896484,35.148014397127554 45.05280181672424,41.304139594431035 44.8267291309312,43.896186038153246 45.05280181672424,46.48822876706254 45.731019873172045,51.67230307706632 45.731019873172045,53.940330914687365 46.18316524568945,56.53235924500041 46.86138330493122,61.71640475851018 47.08745598979294,64.30842194287106 52.51320045441389,72.73245213006157 54.32178194168955,72.73245213006157 58.16501760389656,72.0844512002077 63.8168347524479,69.16844414744992 63.59076206665486,68.19644075154793 62.912544009275734,64.63242382928729 62.912544009275734,62.688411638722755 62.68647132348269,61.06839988240972 62.23432595189661,59.12438385921996 62.00825326517224,55.56034905684646 62.00825326517224,53.940330914687365 61.78218057844788,51.99630722834263 61.556107892654836,50.05228145187721 61.10396252106875,46.48822876706254 60.87788983620703,39.03609590767883 56.58250880148262,34.5 54.32178194168955,34.82400722731836 49.57425553537905,35.148014397127554 45.504947187379,43.896186038153246 45.731019873172045,46.48822876706254 46.18316524568945,48.756263106362894 46.409237931482494,54.26433465909213 46.409237931482494,56.53235924500041 46.63531061820686,58.80038098595105 47.53960136231035,67.22443683352321 48.44389210548252,69.81644612108357 53.6435638833791,72.73245213006157 58.843235661275685,71.76045064884238 63.59076206665486,65.92843079497106 63.13861669506878,63.66041799541563 62.912544009275734,61.39240234903991 62.00825326517224,55.88435251044575 61.330035206861794,50.70029027550481 60.87788983620703,47.78424873831682 60.87788983620703,45.84021843329538 54.773927313275635,35.472021508263424 52.287127767689526,35.148014397127554 47.991746733896434,36.44404249615036 45.05280181672424,43.57218043610919 45.27887450158596,45.5162131797988 45.95709255989641,50.05228145187721 46.409237931482494,51.67230307706632 46.63531061820686,54.26433465909213 47.08745598979294,55.88435251044575 47.08745598979294,57.82837201713119 47.08745598979294,62.36440940340981 47.08745598979294,65.92843079497106 47.53960136231035,67.22443683352321 49.57425553537905,71.4364500392694 54.32178194168955,72.40845169418026 57.260726858861744,72.0844512002077 58.843235661275685,72.40845169418026 60.19967177789658,72.40845169418026 61.78218057844788,71.76045064884238 62.912544009275734,115.5 62.912544009275734,66.57643393042963" stroke="red" stroke-linecap="round" stroke-linejoin="round" stroke-width="0.5"><title>2023-05-13 2.5km</title></polyline><polyline fill="none" points="160.5295939296484,95.79744557244703 160.5295939296484,87.04072412080131 158.49292587302625,84.12181278527714 157.98375886119902,79.01371291582473 159.51125990226865,72.44614652567543 158.49292587302625,65.87856954173185 159.51125990226865,62.95964304008521 160.5295939296484,60.040714444825426 160.5295939296484,57.851516627008095 161.03876094333827,55.662317629437894 160.02042691595852,51.2839161073789 160.02042691595852,46.17577505018562 159.51125990226865,43.25683442596346 159.00209288671613,41.06762758316472 156.96542483195662,36.689210371347144 153.91042274609208,34.5 151.36458767578006,34.5 149.8370866328478,35.229736919980496 148.30958559177816,35.229736919980496 147.29125156253576,35.229736919980496 146.272917535156,35.229736919980496 145.25458350591362,35.229736919980496 142.7087484356016,35.959473710274324 141.18124739453197,36.689210371347144 135.5804102383554,35.959473710274324 134.562076209113,39.60815570317209 132.5254081543535,40.337891708593816 130.4887400958687,43.25683442596346 129.47040606848896,46.90550988074392 128.96123905479908,52.743383806198835 130.99790711142123,55.662317629437894 133.03457516990602,65.87856954173185 132.5254081543535,66.60830084350891 132.01624113880098,67.33803201001137 130.99790711142123,70.98668588837609 131.5070741251111,73.90560663840733 130.99790711142123,76.82452529645525 130.4887400958687,79.01371291582473 129.97957308217883,80.47317067510448 129.97957308217883,84.85154081415385 130.4887400958687,87.7704516267404 130.99790711142123,90.68936034617946 132.5254081543535,93.60826697503217 133.5437421798706,96.52717151097022 134.562076209113,98.7163485372439 135.5804102383554,100.90552439237945 137.10791128128767,105.28387256502174 137.61707829497755,108.93249244685285 140.67208037897944,112.58110906020738 141.6904144063592,111.12166280811653 145.76375052146614,112.58110906020738 150.85542066022754,114.77027746057138 155.43792378902435,115.5" stroke="#4DD2FF" stroke-linecap="round" stroke-linejoin="round" stroke-width="0.5"><title>2023-05-13 0.3km</title></polyline><polyline fill="none" points="95.5,241.12306633219123 76.0,232.52411904279143 76.0,232.52411904279143 76.0,232.52411904279143 76.0,232.52411904279143 76.0,232.52411904279143 76.0,232.52411904279143 76.0,232.52411904279143 76.0,232.52411904279143 76.0,232.52411904279143 76.0,232.52411904279143 76.0,232.52411904279143 76.0,232.52411904279143 76.0,232.52411904279143 76.0,232.52411904279143 76.0,232.52411904279143 76.0,232.52411904279143 82.0,236.82359345909208 82.0,236.82359345909208 83.5,228.22464308328927 85.0,232.52411904279143 86.5,228.22464308328927 82.0,228.22464308328927 82.0,228.22464308328927 89.50000000745058,223.92516558244824 82.0,219.625686542131 64.00000000745058,219.625686542131 55.0,217.4759464468807 56.5,217.4759464468807 56.5,217.4759464468807 56.5,217.4759464468807 56.5,217.4759464468807 79.0,228.22464308328927 79.0,228.22464308328927 82.0,232.52411904279143 82.0,232.52411904279143 82.0,232.52411904279143 82.0,232.52411904279143 82.0,232.52411904279143 82.0,232.52411904279143 82.0,232.52411904279143 82.0,232.52411904279143 82.0,232.52411904279143 82.0,232.52411904279143 82.0,232.52411904279143 82.0,232.52411904279143 82.0,232.52411904279143 82.0,232.52411904279143 82.0,232.52411904279143 82.0,232.52411904279143 82.0,232.52411904279143 82.0,232.52411904279143 92.5,243.2728022010997 77.5,243.2728022010997 70.0,243.2728022010997 77.5,245.42253767326474 76.0,254.021475719288 77.5,232.52411904279143 79.0,232.52411904279143 85.0,226.07490452937782 79.0,232.52411904279143 95.5,241.12306633219123 95.5,241.12306633219123 95.5,241.12306633219123 95.5,241.12306633219123 95.5,241.12306633219123 95.5,241.12306633219123 95.5,241.12306633219123 62.5,254.021475719288 14.5,238.9733300888911 80.5,195.97852428164333" stroke="#4DD2FF" stroke-linecap="round" stroke-linejoin="round" stroke-width="0.5"><title>2023-05-13 0.2km</title></polyline></svg>