<?xml version="1.0" encoding="utf-8" ?>
<svg baseProfile="full" height="300mm" version="1.1" viewBox="0,0,200,300" width="200mm" xmlns="http://www.w3.org/2000/svg" xmlns:ev="http://www.w3.org/2001/xml-events" xmlns:xlink="http://www.w3.org/1999/xlink"><defs /><rect fill="#222222" height="300" width="200" x="0" y="0" /><text fill="#FFFFFF" style="font-size:12px; font-family:Arial; font-weight:bold;" x="10" y="20">Jopus Run</text><text fill="#FFFFFF" style="font-size:4px; font-family:Arial" x="10" y="280">ATHLETE</text><text fill="#FFFFFF" style="font-size:9px; font-family:Arial" x="10" y="290">Jopus</text><text fill="#FFFFFF" style="font-size:4px; font-family:Arial" x="120" y="280">STATISTICS</text><text fill="#FFFFFF" style="font-size:3px; font-family:Arial" x="120" y="285">Number: 2</text><text fill="#FFFFFF" style="font-size:3px; font-family:Arial" x="120" y="290">Weekly: 2.0</text><text fill="#FFFFFF" style="font-size:3px; font-family:Arial" x="141" y="285">Total: 0.5 km</text><text fill="#FFFFFF" style="font-size:3px; font-family:Arial" x="141" y="290">Avg: 0.2 km</text><text fill="#FFFFFF" style="font-size:3px; font-family:Arial" x="167" y="285">Min: 0.2 km</text><text fill="#FFFFFF" style="font-size:3px; font-family:Arial" x="167" y="290">Max: 0.3 km</text><polyline fill="none" points="120.70612524077296,117.72992742992938 120.70612524077296,106.05429882742465 117.9905678331852,102.16241704719141 117.31167848035693,95.35161722125486 119.34834653884172,86.59486203407869 117.9905678331852,77.83809272246435 119.34834653884172,73.9461907199584 120.70612524077296,70.05428592674434 120.70612524077296,67.13535550283268 121.38501459360123,64.21642350591719 120.02723589166999,58.37855480983853 120.02723589166999,51.56770006706938 119.34834653884172,47.67577923461795 118.66945718601346,44.75683677755296 115.9538997784257,38.91894716210663 111.88056366145611,36.0 108.48611690476537,36.0 106.44944884628057,36.972982559818774 104.41278079152107,36.972982559818774 103.05500208586454,36.972982559818774 101.69722338020802,36.972982559818774 100.33944467455149,36.972982559818774 96.94499791786075,37.94596494734287 94.90832985937595,38.91894716210663 87.44054698571563,37.94596494734287 86.0827682800591,42.81087427120656 83.36721087247133,43.78385561145842 80.65165346115828,47.67577923461795 79.29387475922704,52.540679840836674 78.61498540639877,60.32451174175367 81.33054281771183,64.21642350591719 84.0461002252996,77.83809272246435 83.36721087247133,78.81106779119 82.68832151964307,79.78404268017039 81.33054281771183,84.64891451783478 82.0094321668148,88.540808851365 81.33054281771183,92.4327003955841 80.65165346115828,95.35161722125486 79.9727641120553,97.29756089998409 79.9727641120553,103.13538775220513 80.65165346115828,107.02726883580908 81.33054281771183,110.91914712823927 83.36721087247133,114.811022633221 84.72498957440257,118.7028953479603 86.0827682800591,121.62179804965854 87.44054698571563,124.54069918999448 89.47721504420042,130.37849675305188 90.1561043933034,135.2433232627809 94.22944050654769,140.10814541345462 95.58721921220422,138.16221707733348 101.01833403110504,140.10814541345462 107.80722754821181,143.02703661378473 113.9172317199409,144.0" stroke="#4DD2FF" stroke-linecap="round" stroke-linejoin="round" stroke-width="0.5"><title>2023-05-13 0.3km</title></polyline><polyline fill="none" points="154.0,231.49742177594453 128.00000000745058,220.03215872310102 128.00000000745058,220.03215872310102 128.00000000745058,220.03215872310102 128.00000000745058,220.03215872310102 128.00000000745058,220.03215872310102 128.00000000745058,220.03215872310102 128.00000000745058,220.03215872310102 128.00000000745058,220.03215872310102 128.00000000745058,220.03215872310102 128.00000000745058,220.03215872310102 128.00000000745058,220.03215872310102 128.00000000745058,220.03215872310102 128.00000000745058,220.03215872310102 128.00000000745058,220.03215872310102 128.00000000745058,220.03215872310102 128.00000000745058,220.03215872310102 136.00000000745058,225.76479127723724 136.00000000745058,225.76479127723724 138.00000000745058,214.2995241098106 140.00000001490116,220.03215872310102 142.00000000745058,214.2995241098106 136.00000000745058,214.2995241098106 136.00000000745058,214.2995241098106 146.00000001490116,208.56688744202256 136.00000000745058,202.8342487225309 112.00000001490116,202.8342487225309 100.00000001490116,199.9679285949096 102.00000000745058,199.9679285949096 102.00000000745058,199.9679285949096 102.00000000745058,199.9679285949096 102.00000000745058,199.9679285949096 132.00000000745058,214.2995241098106 132.00000000745058,214.2995241098106 136.00000000745058,220.03215872310102 136.00000000745058,220.03215872310102 136.00000000745058,220.03215872310102 136.00000000745058,220.03215872310102 136.00000000745058,220.03215872310102 136.00000000745058,220.03215872310102 136.00000000745058,220.03215872310102 136.00000000745058,220.03215872310102 136.00000000745058,220.03215872310102 136.00000000745058,220.03215872310102 136.00000000745058,220.03215872310102 136.00000000745058,220.03215872310102 136.00000000745058,220.03215872310102 136.00000000745058,220.03215872310102 136.00000000745058,220.03215872310102 136.00000000745058,220.03215872310102 136.00000000745058,220.03215872310102 136.00000000745058,220.03215872310102 150.00000000745058,234.3637362672016 130.00000000745058,234.3637362672016 120.00000000745058,234.3637362672016 130.00000000745058,237.23005022946745 128.00000000745058,248.69530095905066 130.00000000745058,220.03215872310102 132.00000000745058,220.03215872310102 140.00000001490116,211.43320603854954 132.00000000745058,220.03215872310102 154.0,231.49742177594453 154.0,231.49742177594453 154.0,231.49742177594453 154.0,231.49742177594453 154.0,231.49742177594453 154.0,231.49742177594453 154.0,231.49742177594453 110.00000000745058,248.69530095905066 46.0,228.63110678456724 134.00000001490116,171.30469904094934" stroke="#4DD2FF" stroke-linecap="round" stroke-linejoin="round" stroke-width="0.5"><title>2023-05-13 0.2km</title></polyline></svg>