<?xml version="1.0" encoding="utf-8" ?>
<svg baseProfile="full" height="300mm" version="1.1" viewBox="0,0,200,300" width="200mm" xmlns="http://www.w3.org/2000/svg" xmlns:ev="http://www.w3.org/2001/xml-events" xmlns:xlink="http://www.w3.org/1999/xlink"><defs /><rect fill="#222222" height="300" width="200" x="0" y="0" /><text fill="#FFFFFF" style="font-size:12px; font-family:Arial; font-weight:bold;" x="10" y="20">Jopus Run</text><text fill="#FFFFFF" style="font-size:4px; font-family:Arial" x="10" y="280">ATHLETE</text><text fill="#FFFFFF" style="font-size:9px; font-family:Arial" x="10" y="290">Jopus</text><text fill="#FFFFFF" style="font-size:4px; font-family:Arial" x="120" y="280">STATISTICS</text><text fill="#FFFFFF" style="font-size:3px; font-family:Arial" x="120" y="285">Number: 4</text><text fill="#FFFFFF" style="font-size:3px; font-family:Arial" x="120" y="290">Weekly: 2.0</text><text fill="#FFFFFF" style="font-size:3px; font-family:Arial" x="141" y="285">Total: 3.9 km</text><text fill="#FFFFFF" style="font-size:3px; font-family:Arial" x="141" y="290">Avg: 1.0 km</text><text fill="#FFFFFF" style="font-size:3px; font-family:Arial" x="167" y="285">Min: 0.2 km</text><text fill="#FFFFFF" style="font-size:3px; font-family:Arial" x="167" y="290">Max: 2.5 km</text><polyline fill="none" points="94.61129483347759,115.5 93.98749491479248,114.78479698405135 93.61321496358141,113.89079249283532 91.36753525724635,110.85117123177042 90.11993541941047,108.52674872556236 90.11993541941047,107.99034276272869 89.49613550119102,106.91752997227013 88.99709556577727,105.84471602906706 87.37521577766165,102.98387320688926 87.12569581065327,101.91105503455037 86.62665587523952,101.01703900913708 85.62857600580901,99.05020093551138 85.12953607039526,97.97737853345461 84.63049613498151,97.08335898444057 84.00669621676207,96.18933863390703 82.50957641238347,94.4012955307262 82.01053647743538,93.50727277790429 81.26197657501325,92.43444441672182 80.51341667259112,90.2887842344353 80.63817665586248,89.21595241257455 79.88961675390601,87.42789681471186 79.51533680269495,86.35506191733293 79.51533680269495,85.63983801181894 79.0162968672812,85.8186440365389 77.64393704663962,84.74580740887905 77.14489711169153,82.42132409289479 76.77061716048047,81.88490409730002 75.39825734030455,79.91802831256064 75.14873737189919,78.84518534119707 73.90113753499463,76.87830356467748 73.40209760004655,76.34188058919972 72.65353769715875,75.62664950662293 71.28117787651718,74.01737769617466 71.0316579095088,72.40810329082888 70.78213794156909,70.44120882597053 70.65737795829773,69.72597351437435 70.03357803914696,69.01073768961942 69.16025815298781,66.86502713919617 68.78597820177674,65.97097971511539 68.41169825056568,65.2557411986636 67.78789833234623,64.1828824635013 66.41553851123899,62.037161531392485 65.04317868966609,61.32192019582726 65.16793867340311,61.32192019582726 62.67273899912834,61.32192019582726 61.67465912923217,60.96429933566833 59.928019357379526,59.53381461283425 59.42897942196578,58.63976061990252 58.92993948748335,57.92451684875414 58.306139568798244,57.030461414018646 57.18329971516505,55.59997105173534 57.05853973142803,55.24234814115334 56.68425978021696,54.884725101524964 56.185219845268875,54.52710193477105 55.68617991078645,54.16947863897076 55.311899959109724,53.811855215521064 54.93762000789866,51.4872998376959 54.8128600246273,49.87798909621779 53.3157402202487,48.626301169453654 52.06814038241282,47.73223740357207 48.82438080525026,45.40766786254244 45.45586124435067,41.8313964556437 42.711141602601856,40.40088430378819 41.962581700179726,39.506813167827204 39.96642196038738,37.71866849221988 35.59982252959162,36.28815044416115 35.225542578846216,35.930520611815155 34.85126262716949,35.57289065117948 33.47890280652791,34.6788151889923 32.730342904571444,34.5 31.73226303467527,35.39407562289853 31.357983082998544,36.10933554411167 30.98370313225314,36.82459495239891 30.484663197305053,37.361039172450546 29.736103294882923,38.255112231185194 29.860863278619945,39.327998844208196 29.985623262356967,39.86444171832409 29.985623262356967,40.40088430378819 29.48658332787454,42.010210330598056 29.36182334367186,43.083092905872036 27.615183571819216,45.40766786254244 26.741863685660064,45.9441074677743 26.242823750711977,46.30173371126875 24.24666401091963,47.55342455394566 22.874304189812392,49.16273904492846 22.74954420560971,50.05680152884452 22.375264254864305,50.59323863516329 20.37910451507196,52.202548223140184 19.131504678167403,52.0237361745676 17.634384873323143,52.0237361745676 17.3848649058491,52.202548223140184 16.885824970901012,52.202548223140184 16.76106498669833,52.38136023900006 16.63630500342697,52.0237361745676 15.887745101004839,53.811855215521064 15.638225133530796,54.884725101524964 16.137265068478882,54.52710193477105 16.137265068478882,54.52710193477105 15.388705166056752,50.59323863516329" stroke="red" stroke-linecap="round" stroke-linejoin="round" stroke-width="0.5"><title>2023-05-31 1.0km</title></polyline><polyline fill="none" points="153.8168347524479,78.88844937039539 153.59076206665486,79.2124486452667 153.59076206665486,79.53644786088262 155.1732708690688,77.59245169267524 154.2689801249653,74.35245343460701 154.04290743917227,67.87243950308766 153.59076206665486,64.95642565749586 153.36468938179314,62.04040711047128 153.13861669506878,57.50436891161371 152.6864713234827,52.64431535534095 152.00825326517224,50.37628589279484 151.55610789265484,47.78424873831682 150.65181714948267,42.60016328119673 150.87788983620703,39.36010232253466 147.26072685886174,34.82400722731836 138.66996479220688,36.120035558822565 137.3135286765173,36.76804937631823 135.73101987317204,48.43225837557111 136.18316524568945,50.70029027550481 136.4092379314825,54.26433465909213 136.4092379314825,55.56034905684646 136.63531061820686,57.50436891161371 136.18316524568945,59.12438385921996 136.4092379314825,61.06839988240972 136.63531061820686,66.25243239267729 136.63531061820686,67.54843819735106 142.28712776768953,70.46444786258508 147.26072685886174,70.7884486465482 152.6864713234827,63.33641593391076 151.78218057844788,58.15237506455742 151.10396252106875,51.99630722834263 151.3300352068618,49.72827695310116 144.77392731327564,34.82400722731836 139.80032822210342,35.79602856258862 135.05280181672424,41.952151553705335 135.27887450158596,47.46024383290205 135.73101987317204,50.37628589279484 137.08745598979294,61.71640475851018 145.22607268579304,71.76045064884238 148.3910902896896,71.4364500392694 153.59076206665486,63.01241381536238 153.13861669506878,60.420394773595035 152.46039863675833,59.12438385921996 152.00825326517224,53.940330914687365 151.55610789265484,51.024294601986185 150.65181714948267,45.5162131797988 144.32178194168955,34.5 142.28712776768953,34.82400722731836 135.05280181672424,40.65612740279175 135.73101987317204,46.48822876706254 135.9570925598964,48.756263106362894 136.63531061820686,50.37628589279484 137.3135286765173,53.940330914687365 137.08745598979294,55.23634554387536 137.53960136231035,56.856362524675205 137.53960136231035,59.12438385921996 137.7656740481034,60.420394773595035 137.53960136231035,64.63242382928729 137.7656740481034,65.92843079497106 137.99174673389643,69.81644612108357 146.1303634289652,71.4364500392694 148.16501760389656,71.11244937183801 150.19967177789658,70.7884486465482 153.8168347524479,67.87243950308766 153.36468938179314,63.984419997781515 153.36468938179314,62.688411638722755 152.91254400927573,61.39240234903991 152.6864713234827,60.09639213245828 152.2343259518966,59.12438385921996 152.00825326517224,52.64431535534095 151.78218057844788,50.70029027550481 151.10396252106875,47.46024383290205 143.1914185108617,35.472021508263424 140.70461896527559,35.79602856258862 134.8267291309312,42.9241690573981 135.504947187379,48.10825358517468 135.9570925598964,50.70029027550481 135.9570925598964,56.20835590711795 136.4092379314825,61.39240234903991 136.86138330493122,64.30842194287106 137.08745598979294,66.90043541043997 144.54785462841392,72.0844512002077 147.26072685886174,71.11244937183801 153.8168347524479,64.63242382928729 153.59076206665486,61.71640475851018 152.46039863675833,56.856362524675205 151.78218057844788,51.024294601986185 151.78218057844788,48.10825358517468 150.87788983620703,43.248174776206724 150.65181714948267,40.65612740279175 143.6435638833791,35.472021508263424 142.06105508189648,35.148014397127554 135.05280181672424,41.304139594431035 134.8267291309312,43.896186038153246 135.05280181672424,46.48822876706254 135.73101987317204,51.67230307706632 135.73101987317204,53.940330914687365 136.18316524568945,56.53235924500041 136.86138330493122,61.71640475851018 137.08745598979294,64.30842194287106 142.5132004544139,72.73245213006157 144.32178194168955,72.73245213006157 148.16501760389656,72.0844512002077 153.8168347524479,69.16844414744992 153.59076206665486,68.19644075154793 152.91254400927573,64.63242382928729 152.91254400927573,62.688411638722755 152.6864713234827,61.06839988240972 152.2343259518966,59.12438385921996 152.00825326517224,55.56034905684646 152.00825326517224,53.940330914687365 151.78218057844788,51.99630722834263 151.55610789265484,50.05228145187721 151.10396252106875,46.48822876706254 150.87788983620703,39.03609590767883 146.58250880148262,34.5 144.32178194168955,34.82400722731836 139.57425553537905,35.148014397127554 135.504947187379,43.896186038153246 135.73101987317204,46.48822876706254 136.18316524568945,48.756263106362894 136.4092379314825,54.26433465909213 136.4092379314825,56.53235924500041 136.63531061820686,58.80038098595105 137.53960136231035,67.22443683352321 138.44389210548252,69.81644612108357 143.6435638833791,72.73245213006157 148.84323566127568,71.76045064884238 153.59076206665486,65.92843079497106 153.13861669506878,63.66041799541563 152.91254400927573,61.39240234903991 152.00825326517224,55.88435251044575 151.3300352068618,50.70029027550481 150.87788983620703,47.78424873831682 150.87788983620703,45.84021843329538 144.77392731327564,35.472021508263424 142.28712776768953,35.148014397127554 137.99174673389643,36.44404249615036 135.05280181672424,43.57218043610919 135.27887450158596,45.5162131797988 135.9570925598964,50.05228145187721 136.4092379314825,51.67230307706632 136.63531061820686,54.26433465909213 137.08745598979294,55.88435251044575 137.08745598979294,57.82837201713119 137.08745598979294,62.36440940340981 137.08745598979294,65.92843079497106 137.53960136231035,67.22443683352321 139.57425553537905,71.4364500392694 144.32178194168955,72.40845169418026 147.26072685886174,72.0844512002077 148.84323566127568,72.40845169418026 150.19967177789658,72.40845169418026 151.78218057844788,71.76045064884238 152.91254400927573,115.5 152.91254400927573,66.57643393042963" stroke="red" stroke-linecap="round" stroke-linejoin="round" stroke-width="0.5"><title>2023-05-13 2.5km</title></polyline><polyline fill="none" points="70.5295939296484,245.79744557244703 70.5295939296484,237.04072412080131 68.49292587302625,234.12181278527714 67.98375886119902,229.01371291582473 69.51125990226865,222.44614652567543 68.49292587302625,215.87856954173185 69.51125990226865,212.9596430400852 70.5295939296484,210.04071444482543 70.5295939296484,207.8515166270081 71.03876094333827,205.6623176294379 70.02042691595852,201.2839161073789 70.02042691595852,196.17577505018562 69.51125990226865,193.25683442596346 69.00209288671613,191.06762758316472 66.96542483195662,186.68921037134714 63.91042274609208,184.5 61.36458767578006,184.5 59.837086632847786,185.2297369199805 58.30958559177816,185.2297369199805 57.29125156253576,185.2297369199805 56.27291753515601,185.2297369199805 55.254583505913615,185.2297369199805 52.70874843560159,185.95947371027432 51.181247394531965,186.68921037134714 45.5804102383554,185.95947371027432 44.562076209113,189.6081557031721 42.5254081543535,190.33789170859382 40.48874009586871,193.25683442596346 39.470406068488955,196.90550988074392 38.96123905479908,202.74338380619884 40.99790711142123,205.6623176294379 43.03457516990602,215.87856954173185 42.5254081543535,216.6083008435089 42.01624113880098,217.33803201001137 40.99790711142123,220.9866858883761 41.5070741251111,223.90560663840733 40.99790711142123,226.82452529645525 40.48874009586871,229.01371291582473 39.97957308217883,230.47317067510448 39.97957308217883,234.85154081415385 40.48874009586871,237.7704516267404 40.99790711142123,240.68936034617946 42.5254081543535,243.60826697503217 43.543742179870605,246.52717151097022 44.562076209113,248.7163485372439 45.5804102383554,250.90552439237945 47.10791128128767,255.28387256502174 47.617078294977546,258.93249244685285 50.672080378979445,262.5811090602074 51.690414406359196,261.1216628081165 55.763750521466136,262.5811090602074 60.85542066022754,264.7702774605714 65.43792378902435,265.5" stroke="#4dd2ff" stroke-linecap="round" stroke-linejoin="round" stroke-width="0.5"><title>2023-05-13 0.3km</title></polyline><polyline fill="none" points="185.5,241.12306633219123 166.0,232.52411904279143 166.0,232.52411904279143 166.0,232.52411904279143 166.0,232.52411904279143 166.0,232.52411904279143 166.0,232.52411904279143 166.0,232.52411904279143 166.0,232.52411904279143 166.0,232.52411904279143 166.0,232.52411904279143 166.0,232.52411904279143 166.0,232.52411904279143 166.0,232.52411904279143 166.0,232.52411904279143 166.0,232.52411904279143 166.0,232.52411904279143 172.0,236.82359345909208 172.0,236.82359345909208 173.5,228.22464308328927 175.0,232.52411904279143 176.5,228.22464308328927 172.0,228.22464308328927 172.0,228.22464308328927 179.50000000745058,223.92516558244824 172.0,219.625686542131 154.00000000745058,219.625686542131 145.0,217.4759464468807 146.5,217.4759464468807 146.5,217.4759464468807 146.5,217.4759464468807 146.5,217.4759464468807 169.0,228.22464308328927 169.0,228.22464308328927 172.0,232.52411904279143 172.0,232.52411904279143 172.0,232.52411904279143 172.0,232.52411904279143 172.0,232.52411904279143 172.0,232.52411904279143 172.0,232.52411904279143 172.0,232.52411904279143 172.0,232.52411904279143 172.0,232.52411904279143 172.0,232.52411904279143 172.0,232.52411904279143 172.0,232.52411904279143 172.0,232.52411904279143 172.0,232.52411904279143 172.0,232.52411904279143 172.0,232.52411904279143 172.0,232.52411904279143 182.5,243.2728022010997 167.5,243.2728022010997 160.0,243.2728022010997 167.5,245.42253767326474 166.0,254.021475719288 167.5,232.52411904279143 169.0,232.52411904279143 175.0,226.07490452937782 169.0,232.52411904279143 185.5,241.12306633219123 185.5,241.12306633219123 185.5,241.12306633219123 185.5,241.12306633219123 185.5,241.12306633219123 185.5,241.12306633219123 185.5,241.12306633219123 152.5,254.021475719288 104.5,238.9733300888911 170.5,195.97852428164333" stroke="#4dd2ff" stroke-linecap="round" stroke-linejoin="round" stroke-width="0.5"><title>2023-05-13 0.2km</title></polyline></svg>